<?xml version="1.0" encoding="UTF-8" standalone="no"?>
<!DOCTYPE svg PUBLIC "-//W3C//DTD SVG 1.1//EN" "http://www.w3.org/Graphics/SVG/1.1/DTD/svg11.dtd">
<svg width="100%" height="100%" viewBox="0 0 1182 1182" version="1.1" xmlns="http://www.w3.org/2000/svg" xmlns:xlink="http://www.w3.org/1999/xlink" xml:space="preserve" xmlns:serif="http://www.serif.com/" style="fill-rule:evenodd;clip-rule:evenodd;stroke-linejoin:round;stroke-miterlimit:2;">
    <rect id="Favicon_C" x="0.866" y="0.024" width="1181.1" height="1181.1" style="fill:none;"/>
    <g>
        <g id="_01" serif:id="01">
            <path d="M443.931,260.988C457.706,293.046 478.029,334.971 511.488,393.461C537.459,438.859 549.81,459.102 586.371,519.478C592.604,529.771 592.502,529.826 598.497,540.255C613.737,566.771 628.062,592.007 642.773,619.128C643.463,620.402 643.757,620.944 650.509,635.506C651.658,637.985 661.228,658.627 664.556,666.645C675.546,693.119 684.835,717.637 689.091,730.073C698.936,758.842 716.616,813.8 725.635,874.094C727.079,883.742 728.286,895.622 728.476,897.499C735.292,964.574 729.087,1018.23 719.043,1060.84C717.567,1067.1 716.752,1068.47 716.398,1069.06C715.952,1069.81 713.377,1074.12 707.734,1075.62C706.868,1075.85 701.909,1077.16 696.63,1074.08C695.879,1073.64 691.517,1071.09 690.074,1065.41C689.908,1064.76 689.688,1063.89 689.846,1056.99C691.654,978.372 670.945,917.602 658.584,883.662C637.132,824.766 608.652,776.666 600.299,761.707C585.264,734.783 572.503,714.568 570.077,710.43C557.825,689.536 547.273,672.642 546.994,672.161C545.723,669.965 534.573,648.64 499.652,587.842C495.684,580.936 495.656,580.956 491.829,573.972C463.324,521.947 437.184,474.586 414.646,429.308C397.588,395.04 372.118,341.827 350.298,281.053C349.65,279.247 342.848,260.747 333.703,230.479C326.525,206.723 322.813,190.483 321.888,186.941C321.431,185.19 318.891,175.465 316.512,164.962C315.43,160.183 315.296,160.192 315.091,155.295C314.762,147.43 316.712,141.092 317.077,139.905C319.392,132.381 323.346,127.057 324.086,126.061C328.78,119.741 334.284,116.042 335.315,115.35C341.849,110.959 348.272,109.309 349.475,109.001C357.1,107.042 363.706,107.632 364.942,107.742C372.784,108.442 378.814,111.202 379.943,111.719C384.237,113.684 384.155,113.838 388.081,116.461C394.077,120.466 418.921,136.884 440.61,149.625C519.588,196.019 586.915,224.662 632.745,244.243C660.074,255.918 685.075,266.126 689.504,268.093C725.624,284.135 748.324,294.307 774.763,307.781C795.146,318.168 812.835,328.151 828.809,338.458C854.931,355.312 872.366,371.515 875.847,374.751C889.235,387.193 899.514,398.884 913.502,417.608C925.009,433.011 932.603,445.014 935.481,449.567C935.494,449.588 938.203,454.244 941.315,459.97C950.953,477.702 971.424,518.021 981.164,567.303C989.339,608.671 998.086,691.552 949.885,784.666C915.476,851.136 863.713,899.174 825.759,916.662C823.127,917.875 823.143,918.023 820.262,918.3C819.397,918.384 814.41,918.864 809.861,915.163C809.167,914.597 805.167,911.343 804.57,905.3C804.485,904.435 803.992,899.445 807.708,894.899C809.94,892.169 810.259,892.519 813.181,890.55C851.18,864.942 911.67,784.354 916.144,683.731C918.393,633.144 905.352,595.191 896.552,573.437C885.539,546.215 870.943,522.675 856.177,503.033C854.132,500.312 850.254,494.308 842.177,483.885C838.299,478.881 828.732,466.895 821.43,459.337C810.722,448.254 791.363,431.066 747.83,408.708C740.104,404.741 722.171,395.489 667.653,372.081C658.62,368.203 646.322,362.97 646.304,362.962C641.408,360.766 595.645,339.964 579.86,332.423C537.548,312.208 491.964,289.093 443.931,260.988Z" style="fill:url(#_Linear1);"/>
            <path d="M600.263,939.97C600.291,940.551 600.451,943.819 597.747,946.798C596.911,947.72 595.89,948.506 594.775,949.059C594.177,949.355 578.09,953.636 556.931,957.279C556.906,957.283 546.659,958.919 533.509,960.166C501.837,963.17 478.63,961.645 466.114,960.509C463.085,960.234 456.497,959.251 455.663,959.126C437.598,956.431 421.904,952.478 408.536,948.173C408.321,948.104 397.634,944.586 384.232,938.484C368.403,931.277 356.483,924.026 349.288,919.387C349.251,919.363 341.487,914.18 331.836,906.349C318.651,895.651 308.085,885.071 299.981,876.124C299.884,876.016 291.328,866.323 281.283,851.823C277.387,846.2 268.534,831.271 264.701,823.371C259.219,812.07 255.517,802.855 253.903,798.799C253.19,797.006 246.873,779.711 243.628,767.077C237.014,741.329 234.045,719.466 232.69,708.578C232.677,708.475 231.712,699.42 230.987,687.275C229.875,668.632 229.919,653.224 230.017,644.88C230.018,644.819 230.304,629.944 231.992,609.444C232.93,598.043 234.358,584.63 235.333,577.836C240.885,539.145 249.375,500.983 259.539,465.102C259.571,464.99 265.332,445.007 274.405,419.481C275.713,415.802 283.248,394.602 292.062,373.986C292.302,373.425 293.647,370.279 297.136,368.279C298.177,367.682 299.332,367.234 300.517,367.041C300.535,367.038 303.942,367.178 303.95,367.182C304.953,367.716 306.082,368.064 306.958,368.789C309.784,371.128 310.47,374.546 310.585,375.118C311.078,377.575 310.927,377.598 310.619,380.086C305.139,424.363 304.694,455.549 304.176,476.134C302.697,534.893 307.564,574.596 308.419,583.935C311.187,614.157 314.982,633.65 316.095,640.345C320.944,669.503 326.409,687.668 327.715,692.788C334.395,718.967 341.404,735.407 343.007,739.684C346.453,748.882 348.757,753.863 352.246,761.767C356.177,770.671 358.334,774.428 360.742,779.37C365.138,788.39 368.027,792.994 370.006,796.622C375.208,806.158 379.042,811.538 380.579,814.03C392.853,833.938 404.753,845.219 407.356,848.066C423.092,865.274 438.546,875.193 442.434,877.938C461.164,891.164 477.907,898.226 483.064,900.652C517.246,916.727 549.631,922.849 559.582,925.062C574.966,928.483 586.846,930.221 590.129,930.769C590.133,930.77 590.128,930.768 590.135,930.768C591.393,930.911 592.707,930.799 593.909,931.198C597.614,932.428 599.066,935.57 599.311,936.1C600.157,937.931 600.165,937.953 600.263,939.97Z" style="fill:url(#_Linear2);"/>
        </g>
    </g>
    <defs>
        <linearGradient id="_Linear1" x1="0" y1="0" x2="1" y2="0" gradientUnits="userSpaceOnUse" gradientTransform="matrix(-596.802,-1279.6,1279.6,-596.802,770.544,1279.63)"><stop offset="0" style="stop-color:rgb(0,189,191);stop-opacity:1"/><stop offset="1" style="stop-color:rgb(138,210,30);stop-opacity:1"/></linearGradient>
        <linearGradient id="_Linear2" x1="0" y1="0" x2="1" y2="0" gradientUnits="userSpaceOnUse" gradientTransform="matrix(-596.802,-1279.6,1279.6,-596.802,770.544,1279.63)"><stop offset="0" style="stop-color:rgb(0,189,191);stop-opacity:1"/><stop offset="1" style="stop-color:rgb(138,210,30);stop-opacity:1"/></linearGradient>
    </defs>
</svg>
