<?xml version="1.0" encoding="UTF-8" standalone="no"?>
<!DOCTYPE svg PUBLIC "-//W3C//DTD SVG 1.1//EN" "http://www.w3.org/Graphics/SVG/1.1/DTD/svg11.dtd">
<svg width="100%" height="100%" viewBox="0 0 1182 1183" version="1.1" xmlns="http://www.w3.org/2000/svg" xmlns:xlink="http://www.w3.org/1999/xlink" xml:space="preserve" xmlns:serif="http://www.serif.com/" style="fill-rule:evenodd;clip-rule:evenodd;stroke-linejoin:round;stroke-miterlimit:2;">
    <rect id="Favicon_BG" x="0.206" y="0.991" width="1181.1" height="1181.1" style="fill:none;"/>
    <clipPath id="_clip1">
        <rect x="0.206" y="0.991" width="1181.1" height="1181.1"/>
    </clipPath>
    <g clip-path="url(#_clip1)">
        <path d="M1181.31,220.888L1181.31,962.196C1181.31,1083.56 1082.78,1182.09 961.411,1182.09L220.103,1182.09C98.739,1182.09 0.206,1083.56 0.206,962.196L0.206,220.888C0.206,99.523 98.739,0.991 220.103,0.991L961.411,0.991C1082.78,0.991 1181.31,99.523 1181.31,220.888Z" style="fill:url(#_Linear2);"/>
        <g>
            <g id="_01" serif:id="01">
                <path d="M443.272,261.955C457.046,294.013 477.369,335.937 510.829,394.428C536.799,439.826 549.15,460.069 585.711,520.445C591.944,530.738 591.843,530.793 597.837,541.222C613.077,567.737 627.402,592.973 642.113,620.095C642.804,621.369 643.098,621.911 649.849,636.473C650.999,638.952 660.569,659.594 663.897,667.612C674.886,694.086 684.175,718.604 688.431,731.04C698.276,759.809 715.956,814.767 724.976,875.061C726.419,884.709 727.626,896.589 727.817,898.466C734.632,965.541 728.427,1019.2 718.384,1061.81C716.908,1068.07 716.093,1069.43 715.738,1070.03C715.293,1070.77 712.717,1075.09 707.075,1076.58C706.208,1076.81 701.249,1078.13 695.97,1075.05C695.22,1074.61 690.857,1072.06 689.415,1066.38C689.249,1065.73 689.028,1064.86 689.187,1057.96C690.994,979.338 670.286,918.569 657.924,884.629C636.473,825.732 607.992,777.633 599.639,762.674C584.605,735.75 571.843,715.535 569.417,711.397C557.165,690.503 546.613,673.609 546.335,673.128C545.063,670.932 533.913,649.607 498.992,588.809C495.025,581.902 494.997,581.923 491.17,574.939C462.664,522.913 436.524,475.553 413.986,430.275C396.928,396.006 371.458,342.794 349.639,282.02C348.991,280.214 342.189,261.714 333.043,231.446C325.865,207.69 322.153,191.45 321.228,187.908C320.771,186.157 318.231,176.432 315.852,165.929C314.77,161.15 314.637,161.159 314.432,156.262C314.103,148.397 316.053,142.059 316.418,140.872C318.733,133.348 322.686,128.024 323.427,127.028C328.121,120.708 333.625,117.009 334.655,116.317C341.19,111.926 347.613,110.276 348.815,109.967C356.441,108.009 363.046,108.599 364.283,108.709C372.125,109.408 378.155,112.169 379.284,112.686C383.577,114.651 383.496,114.805 387.421,117.427C393.417,121.433 418.262,137.851 439.95,150.592C518.928,196.986 586.256,225.629 632.086,245.21C659.414,256.885 684.415,267.093 688.844,269.06C724.964,285.102 747.665,295.274 774.103,308.748C794.486,319.135 812.176,329.118 828.15,339.425C854.271,356.278 871.706,372.482 875.188,375.718C888.576,388.16 898.854,399.851 912.843,418.575C924.35,433.978 931.944,445.981 934.821,450.534C934.834,450.555 937.544,455.211 940.656,460.937C950.294,478.669 970.764,518.988 980.504,568.27C988.679,609.638 997.427,692.519 949.225,785.632C914.816,852.103 863.053,900.141 825.099,917.629C822.467,918.842 822.484,918.99 819.603,919.267C818.738,919.351 813.75,919.831 809.202,916.13C808.507,915.564 804.508,912.309 803.911,906.267C803.825,905.402 803.332,900.411 807.048,895.865C809.28,893.135 809.6,893.486 812.522,891.516C850.52,865.909 911.01,785.321 915.484,684.697C917.734,634.111 904.692,596.158 895.892,574.404C884.88,547.182 870.284,523.642 855.518,504C853.472,501.279 849.594,495.275 841.517,484.852C837.64,479.848 828.073,467.861 820.771,460.304C810.063,449.221 790.704,432.032 747.17,409.675C739.444,405.708 721.511,396.455 666.993,373.048C657.961,369.17 645.662,363.937 645.644,363.929C640.749,361.733 594.985,340.931 579.2,333.39C536.888,313.175 491.304,290.06 443.272,261.955Z" style="fill:white;"/>
                <path d="M599.603,940.937C599.632,941.518 599.791,944.786 597.088,947.765C596.251,948.687 595.231,949.473 594.115,950.026C593.518,950.322 577.431,954.603 556.271,958.246C556.246,958.25 545.999,959.886 532.849,961.133C501.178,964.137 477.97,962.612 465.454,961.476C462.426,961.201 455.837,960.218 455.003,960.093C436.939,957.398 421.245,953.445 407.876,949.14C407.661,949.071 396.974,945.553 383.572,939.451C367.744,932.244 355.824,924.993 348.629,920.354C348.591,920.33 340.828,915.146 331.177,907.316C317.992,896.618 307.425,886.038 299.322,877.091C299.224,876.983 290.668,867.29 280.623,852.79C276.727,847.167 267.874,832.238 264.042,824.338C258.56,813.037 254.857,803.822 253.244,799.766C252.53,797.973 246.213,780.678 242.968,768.044C236.354,742.295 233.386,720.433 232.03,709.545C232.017,709.442 231.052,700.387 230.328,688.242C229.216,669.599 229.26,654.191 229.357,645.847C229.358,645.786 229.645,630.911 231.332,610.41C232.27,599.009 233.699,585.596 234.674,578.803C240.226,540.112 248.715,501.95 258.879,466.069C258.911,465.957 264.673,445.974 273.745,420.448C275.053,416.769 282.588,395.569 291.402,374.953C291.643,374.391 292.988,371.246 296.477,369.246C297.518,368.649 298.673,368.201 299.857,368.008C299.876,368.005 303.283,368.144 303.29,368.148C304.293,368.683 305.422,369.031 306.298,369.756C309.124,372.095 309.81,375.513 309.925,376.085C310.418,378.542 310.267,378.565 309.96,381.052C304.48,425.33 304.034,456.516 303.516,477.101C302.037,535.86 306.904,575.563 307.759,584.902C310.527,615.124 314.322,634.617 315.436,641.312C320.285,670.47 325.749,688.635 327.055,693.755C333.735,719.934 340.745,736.374 342.347,740.651C345.793,749.849 348.097,754.83 351.586,762.733C355.518,771.638 357.674,775.395 360.082,780.336C364.479,789.357 367.367,793.961 369.346,797.589C374.548,807.125 378.382,812.505 379.919,814.997C392.194,834.905 404.093,846.186 406.696,849.033C422.432,866.241 437.886,876.16 441.774,878.905C460.504,892.131 477.247,899.193 482.404,901.619C516.586,917.694 548.971,923.816 558.922,926.028C574.306,929.45 586.187,931.188 589.469,931.736C589.473,931.737 589.469,931.735 589.475,931.735C590.733,931.878 592.047,931.766 593.249,932.165C596.955,933.395 598.406,936.537 598.651,937.067C599.497,938.898 599.505,938.92 599.603,940.937Z" style="fill:white;"/>
            </g>
        </g>
    </g>
    <defs>
        <linearGradient id="_Linear2" x1="0" y1="0" x2="1" y2="0" gradientUnits="userSpaceOnUse" gradientTransform="matrix(-171.876,-1348.89,1348.89,-171.876,681.51,1349.88)"><stop offset="0" style="stop-color:rgb(0,189,191);stop-opacity:1"/><stop offset="1" style="stop-color:rgb(138,210,30);stop-opacity:1"/></linearGradient>
    </defs>
</svg>
