<?xml version="1.0" encoding="UTF-8" standalone="no"?>
<!DOCTYPE svg PUBLIC "-//W3C//DTD SVG 1.1//EN" "http://www.w3.org/Graphics/SVG/1.1/DTD/svg11.dtd">
<svg width="100%" height="100%" viewBox="0 0 2429 1148" version="1.1" xmlns="http://www.w3.org/2000/svg" xmlns:xlink="http://www.w3.org/1999/xlink" xml:space="preserve" xmlns:serif="http://www.serif.com/" style="fill-rule:evenodd;clip-rule:evenodd;stroke-linejoin:round;stroke-miterlimit:2;">
    <rect id="LogoHorizontal_C" x="0" y="0.628" width="2428.14" height="1147.26" style="fill:none;"/>
    <g>
        <g id="_01" serif:id="01">
            <path d="M466.323,250.173C470.052,259.698 473.668,268.365 475.718,272.86C485.63,294.596 493.905,310.33 495.591,313.535C531.557,381.913 570.667,439.668 611.887,512.238C622.378,530.708 632.667,549.596 642.314,568.742C642.563,569.236 655.005,594.417 666.592,623.854C672.134,637.932 675.998,649.126 678.389,656.335C678.593,656.949 678.677,656.959 680.379,663.332C684.649,679.314 687.853,694.348 689.173,702.298C692.902,724.768 694.226,742.788 694.745,755.545C695.1,764.281 694.83,774.82 694.787,776.495C694.409,791.211 692.703,840.696 671.289,894.994C663.911,913.702 643.658,961.718 594.756,1017.76C594.633,1017.9 593.268,1019.46 593.209,1019.52C592.162,1020.45 591.271,1021.61 590.064,1022.33C589.514,1022.66 586.332,1024.57 582.14,1023.58C581.495,1023.43 577.811,1022.56 575.439,1018.7C575.103,1018.16 573.143,1014.97 574.189,1010.78C574.309,1010.3 574.495,1009.55 576.992,1005.27C595.335,973.831 618.063,928.434 627.153,873.186C629.922,856.352 636.16,817.29 625.821,764.298C624.672,758.413 621.821,741.853 613.972,717.514C612.977,714.43 609.758,702.849 602.163,683.254C600.894,679.981 592.805,652.621 570.997,606.769C565.334,594.864 555.759,572.204 522.21,510.404C490.256,451.541 457.278,393.036 431.148,337.462C429.357,333.653 422.067,318.664 413.396,298.386C410.507,291.631 398.54,266.045 386.693,230.627C385.853,228.116 377.675,204.769 371.335,177.394C370.555,174.024 370.52,174.021 370.377,170.568C370.126,164.521 371.627,159.649 371.908,158.737C373.689,152.952 376.729,148.86 377.298,148.094C380.907,143.235 385.139,140.391 385.931,139.859C390.954,136.482 395.892,135.213 396.817,134.975C402.68,133.468 407.758,133.919 408.709,134.004C414.739,134.539 419.377,136.659 420.245,137.055C424.07,138.804 423.952,139.017 427.47,141.328C478.122,174.598 524.65,197.194 537.889,203.716C562.582,215.882 581.234,223.972 585.61,226.029C609.581,237.294 631.065,246.643 662.658,260.948C704.018,279.676 747.671,300.259 780.623,329.059C790.725,337.889 798.279,346.198 801.562,350.32C802.162,351.074 813.135,364.886 824.617,383.688C844.615,416.433 852.919,442.165 856.756,455.533C874.932,518.868 867.094,579.992 840.313,633.439C814.377,685.199 775.063,720.575 748.872,732.711C748.274,732.989 744.88,734.561 740.643,733.295C739.356,732.91 738.109,732.293 737.054,731.461C737.04,731.45 734.445,728.399 734.442,728.391C734.071,727.117 733.446,725.89 733.333,724.568C732.978,720.397 735.244,717.394 735.631,716.882C737.519,714.38 737.803,714.667 740.39,712.9C773.612,690.201 825.702,616.493 816.193,529.943C812.709,498.237 801.655,471.056 787.323,446.989C785.348,443.672 772.945,422.372 749.918,398.154C749.633,397.853 749.596,397.896 746.291,394.455C724.939,372.226 692.902,356.297 651.687,338.293C623.59,326.02 598.572,316.184 560.216,298.984C554.702,296.511 552.27,295.503 537.763,288.363C515.062,277.189 492.371,265.38 466.323,250.173Z" style="fill:url(#_Linear1);"/>
            <path d="M582.53,749.927C582.549,750.319 582.64,752.238 580.591,754.438C579.937,755.14 579.172,755.752 578.345,756.241C578.075,756.4 576.887,757.104 574.682,757.641C558.188,761.661 548.672,762.973 546.385,763.288C516.916,767.351 495.472,766.199 483.301,765.094C480.166,764.809 474.282,763.876 473.5,763.752C452.46,760.417 438.144,755.067 437.615,754.874C419.339,748.213 405.746,740.345 397.037,734.73C397.01,734.712 391.276,730.884 384.15,725.102C374.414,717.203 366.612,709.391 360.629,702.784C358.358,700.277 349.815,689.656 345.102,682.224C344.26,680.897 339.561,673.487 335.257,665.22C333.755,662.335 331.25,656.701 330.918,655.953C327.737,648.8 325.524,643.225 322.534,634.044C320.238,626.994 318.935,622.425 316.995,613.916C313.407,598.18 311.693,585.113 310.941,579.069C310.931,578.993 310.219,572.306 309.684,563.338C309.676,563.202 308.462,544.023 309.12,527.246C309.848,508.68 311.547,493.321 312.574,484.839C312.576,484.826 313.971,474.194 316.619,459.772C321.614,432.57 327.556,410.643 330.766,399.287C330.846,399.004 335.114,384.253 341.743,365.6C348.118,347.665 353.492,335.048 354.781,332.008C355.341,330.687 355.211,330.609 356.104,329.485C356.372,329.148 357.925,327.195 360.779,326.811C361.221,326.751 363.729,326.413 366.157,328.274C366.499,328.536 368.506,330.074 368.831,332.949C368.99,334.348 364.647,360.701 363.854,402.518C363.705,410.34 362.29,443.891 366.659,484.928C367.048,488.59 368.298,505.136 372.182,526.636C372.747,529.765 375.144,545.902 380.6,565.491C381.505,568.742 384.858,583.13 391.732,600.308C392.54,602.328 394.489,607.853 397.961,615.487C399.176,618.158 400.943,622.54 404.738,629.789C405.189,630.651 407.49,635.718 411.517,642.607C412.441,644.188 414.914,649.095 419.705,656.224C420.778,657.82 427.12,669.061 439.323,681.431C441.388,683.525 449.365,693 465.008,703.55C466.828,704.777 476.982,712.443 494.228,720.158C499.201,722.382 517.435,731.666 550.105,738.429C556.663,739.787 558.125,740.432 574.004,742.99C575.946,743.302 575.985,743.205 577.767,744.047C578.161,744.233 580.586,745.379 581.845,747.667C582.424,748.72 582.473,748.725 582.53,749.927Z" style="fill:url(#_Linear2);"/>
        </g>
    </g>
    <g transform="matrix(1.3152,0,0,1.3152,-682.09,-1210.95)">
        <g transform="matrix(454.167,0,0,454.167,1307.53,1483.04)">
            <path d="M0.359,-0L0.36,-0.008L0.258,-0.008L0.304,-0.292L0.333,-0.292C0.539,-0.292 0.723,-0.358 0.723,-0.535C0.723,-0.677 0.565,-0.7 0.424,-0.7L0.08,-0.7L0.079,-0.692L0.167,-0.692L0.056,-0.008L-0.032,-0.008L-0.033,-0L0.359,-0ZM0.369,-0.692L0.398,-0.692C0.461,-0.692 0.51,-0.67 0.51,-0.571C0.51,-0.402 0.444,-0.3 0.335,-0.3L0.306,-0.3L0.369,-0.692Z" style="fill:url(#_Linear3);fill-rule:nonzero;"/>
        </g>
        <g transform="matrix(323.847,0,0,323.847,1549.6,1483.04)">
            <path d="M0.353,-0.113C0.272,-0.115 0.218,-0.171 0.218,-0.282C0.218,-0.293 0.219,-0.303 0.22,-0.314C0.456,-0.276 0.554,-0.347 0.554,-0.42C0.554,-0.513 0.44,-0.533 0.358,-0.534C0.167,-0.534 0.025,-0.382 0.025,-0.208C0.025,-0.075 0.111,0.008 0.236,0.008C0.353,0.008 0.461,-0.064 0.529,-0.187L0.522,-0.19C0.477,-0.128 0.406,-0.112 0.353,-0.113L0.353,-0.113ZM0.358,-0.526C0.392,-0.526 0.406,-0.5 0.406,-0.464C0.406,-0.403 0.351,-0.318 0.221,-0.324C0.232,-0.422 0.285,-0.526 0.358,-0.526L0.358,-0.526Z" style="fill:url(#_Linear4);fill-rule:nonzero;"/>
        </g>
        <g transform="matrix(323.847,0,0,323.847,1737.1,1483.04)">
            <path d="M0.205,0.008C0.336,0.008 0.499,-0.052 0.499,-0.188C0.499,-0.37 0.192,-0.333 0.192,-0.449C0.192,-0.504 0.259,-0.526 0.314,-0.526C0.364,-0.526 0.399,-0.508 0.399,-0.476C0.399,-0.452 0.38,-0.431 0.358,-0.425C0.358,-0.384 0.393,-0.363 0.428,-0.363C0.469,-0.363 0.503,-0.393 0.503,-0.437C0.503,-0.514 0.398,-0.534 0.316,-0.534C0.189,-0.534 0.038,-0.473 0.038,-0.349C0.038,-0.168 0.35,-0.19 0.35,-0.077C0.35,-0.014 0.255,-0 0.208,-0C0.134,-0 0.11,-0.028 0.11,-0.056C0.11,-0.084 0.128,-0.111 0.153,-0.118C0.155,-0.163 0.116,-0.185 0.081,-0.185C0.031,-0.185 -0.005,-0.144 -0.005,-0.102C-0.005,-0.021 0.108,0.008 0.205,0.008Z" style="fill:url(#_Linear5);fill-rule:nonzero;"/>
        </g>
        <g transform="matrix(323.847,0,0,323.847,1909.71,1483.04)">
            <path d="M0.406,-0.518L0.408,-0.526L0.302,-0.526L0.333,-0.725L0.325,-0.725C0.314,-0.666 0.301,-0.603 0.266,-0.565C0.223,-0.534 0.162,-0.526 0.092,-0.526L0.048,-0.526L0.046,-0.518L0.121,-0.518L0.06,-0.136C0.043,-0.027 0.098,0.008 0.165,0.008C0.243,0.008 0.312,-0.036 0.328,-0.12L0.32,-0.12C0.309,-0.074 0.287,-0.046 0.261,-0.046C0.225,-0.046 0.234,-0.096 0.24,-0.136L0.3,-0.518L0.406,-0.518Z" style="fill:url(#_Linear6);fill-rule:nonzero;"/>
        </g>
        <g transform="matrix(323.847,0,0,323.847,2025,1483.04)">
            <path d="M0.354,-0.534C0.174,-0.534 0.027,-0.39 0.027,-0.219C0.027,-0.087 0.126,0.008 0.269,0.008C0.447,0.008 0.597,-0.141 0.597,-0.307C0.597,-0.439 0.498,-0.534 0.354,-0.534ZM0.27,-0C0.221,-0 0.21,-0.055 0.21,-0.114C0.21,-0.218 0.243,-0.526 0.353,-0.526C0.403,-0.526 0.414,-0.469 0.414,-0.41C0.414,-0.292 0.381,-0 0.27,-0Z" style="fill:url(#_Linear7);fill-rule:nonzero;"/>
        </g>
    </g>
    <defs>
        <linearGradient id="_Linear1" x1="0" y1="0" x2="1" y2="0" gradientUnits="userSpaceOnUse" gradientTransform="matrix(-1470.03,-844.131,844.131,-1470.03,1545.15,1013.24)"><stop offset="0" style="stop-color:rgb(0,189,191);stop-opacity:1"/><stop offset="1" style="stop-color:rgb(138,210,30);stop-opacity:1"/></linearGradient>
        <linearGradient id="_Linear2" x1="0" y1="0" x2="1" y2="0" gradientUnits="userSpaceOnUse" gradientTransform="matrix(-1470.03,-844.131,844.131,-1470.03,1545.15,1013.24)"><stop offset="0" style="stop-color:rgb(0,189,191);stop-opacity:1"/><stop offset="1" style="stop-color:rgb(138,210,30);stop-opacity:1"/></linearGradient>
        <linearGradient id="_Linear3" x1="0" y1="0" x2="1" y2="0" gradientUnits="userSpaceOnUse" gradientTransform="matrix(0.230238,-2.11536,2.11536,0.230238,0.986231,1.16037)"><stop offset="0" style="stop-color:rgb(0,189,191);stop-opacity:1"/><stop offset="1" style="stop-color:rgb(138,210,30);stop-opacity:1"/></linearGradient>
        <linearGradient id="_Linear4" x1="0" y1="0" x2="1" y2="0" gradientUnits="userSpaceOnUse" gradientTransform="matrix(0.322888,-2.96661,2.96661,0.322888,0.635617,1.62732)"><stop offset="0" style="stop-color:rgb(0,189,191);stop-opacity:1"/><stop offset="1" style="stop-color:rgb(138,210,30);stop-opacity:1"/></linearGradient>
        <linearGradient id="_Linear5" x1="0" y1="0" x2="1" y2="0" gradientUnits="userSpaceOnUse" gradientTransform="matrix(0.322888,-2.96661,2.96661,0.322888,0.056617,1.62732)"><stop offset="0" style="stop-color:rgb(0,189,191);stop-opacity:1"/><stop offset="1" style="stop-color:rgb(138,210,30);stop-opacity:1"/></linearGradient>
        <linearGradient id="_Linear6" x1="0" y1="0" x2="1" y2="0" gradientUnits="userSpaceOnUse" gradientTransform="matrix(0.322888,-2.96661,2.96661,0.322888,-0.476383,1.62732)"><stop offset="0" style="stop-color:rgb(0,189,191);stop-opacity:1"/><stop offset="1" style="stop-color:rgb(138,210,30);stop-opacity:1"/></linearGradient>
        <linearGradient id="_Linear7" x1="0" y1="0" x2="1" y2="0" gradientUnits="userSpaceOnUse" gradientTransform="matrix(0.322888,-2.96661,2.96661,0.322888,-0.832383,1.62732)"><stop offset="0" style="stop-color:rgb(0,189,191);stop-opacity:1"/><stop offset="1" style="stop-color:rgb(138,210,30);stop-opacity:1"/></linearGradient>
    </defs>
</svg>
