<?xml version="1.0" encoding="UTF-8" standalone="no"?>
<!DOCTYPE svg PUBLIC "-//W3C//DTD SVG 1.1//EN" "http://www.w3.org/Graphics/SVG/1.1/DTD/svg11.dtd">
<svg width="100%" height="100%" viewBox="0 0 1182 1693" version="1.1" xmlns="http://www.w3.org/2000/svg" xmlns:xlink="http://www.w3.org/1999/xlink" xml:space="preserve" xmlns:serif="http://www.serif.com/" style="fill-rule:evenodd;clip-rule:evenodd;stroke-linejoin:round;stroke-miterlimit:2;">
    <rect id="LogoVertical_C" x="0.811" y="0.237" width="1181.1" height="1692.46" style="fill:none;"/>
    <g>
        <g id="_01" serif:id="01">
            <path d="M467.134,249.782C470.863,259.307 474.479,267.974 476.529,272.469C486.44,294.205 494.716,309.939 496.402,313.144C532.368,381.523 571.477,439.278 612.697,511.847C623.188,530.317 633.477,549.205 643.125,568.351C643.374,568.845 655.816,594.026 667.403,623.463C672.944,637.541 676.808,648.735 679.2,655.944C679.403,656.559 679.487,656.568 681.19,662.941C685.46,678.923 688.664,693.957 689.983,701.908C693.712,724.377 695.037,742.398 695.556,755.154C695.911,763.89 695.64,774.429 695.597,776.104C695.22,790.82 693.514,840.305 672.1,894.603C664.722,913.311 644.468,961.327 595.567,1017.37C595.443,1017.51 594.079,1019.07 594.02,1019.12C592.972,1020.06 592.081,1021.21 590.875,1021.94C590.325,1022.27 587.143,1024.17 582.951,1023.19C582.306,1023.03 578.622,1022.17 576.25,1018.31C575.914,1017.77 573.954,1014.58 575,1010.39C575.119,1009.91 575.306,1009.16 577.803,1004.88C596.146,973.441 618.874,928.043 627.963,872.795C630.733,855.962 636.971,816.899 626.632,763.907C625.483,758.022 622.632,741.462 614.782,717.123C613.788,714.039 610.569,702.458 602.973,682.863C601.704,679.59 593.616,652.23 571.807,606.378C566.145,594.473 556.57,571.813 523.021,510.013C491.066,451.15 458.089,392.645 431.958,337.071C430.167,333.263 422.878,318.273 414.206,297.995C411.317,291.24 399.351,265.654 387.504,230.236C386.664,227.725 378.485,204.378 372.146,177.003C371.365,173.633 371.331,173.631 371.187,170.177C370.937,164.13 372.437,159.258 372.718,158.346C374.499,152.562 377.539,148.469 378.109,147.703C381.718,142.844 385.949,140 386.741,139.468C391.765,136.091 396.703,134.822 397.628,134.584C403.49,133.077 408.569,133.528 409.52,133.613C415.55,134.148 420.187,136.268 421.055,136.664C424.881,138.413 424.763,138.626 428.281,140.937C478.933,174.207 525.461,196.803 538.7,203.325C563.392,215.491 582.044,223.581 586.421,225.638C610.391,236.903 631.876,246.253 663.468,260.557C704.829,279.285 748.481,299.868 781.433,328.669C791.536,337.499 799.09,345.807 802.373,349.93C802.973,350.683 813.946,364.495 825.428,383.297C845.425,416.042 853.73,441.774 857.567,455.142C875.743,518.477 867.905,579.601 841.124,633.048C815.188,684.808 775.873,720.184 749.683,732.321C749.084,732.598 745.691,734.17 741.454,732.904C740.166,732.519 738.919,731.903 737.865,731.07C737.851,731.059 735.255,728.008 735.253,728C734.882,726.726 734.257,725.499 734.144,724.177C733.788,720.006 736.055,717.003 736.441,716.491C738.33,713.989 738.614,714.276 741.2,712.509C774.423,689.81 826.513,616.102 817.003,529.552C813.52,497.846 802.466,470.665 788.134,446.598C786.159,443.281 773.756,421.981 750.729,397.763C750.444,397.462 750.407,397.505 747.102,394.064C725.75,371.835 693.713,355.906 652.497,337.902C624.401,325.629 599.382,315.793 561.026,298.593C555.513,296.12 553.08,295.112 538.574,287.972C515.872,276.798 493.181,264.989 467.134,249.782Z" style="fill:url(#_Linear1);"/>
            <path d="M583.341,749.536C583.359,749.929 583.451,751.848 581.401,754.047C580.747,754.749 579.982,755.361 579.156,755.85C578.886,756.009 577.697,756.713 575.492,757.25C558.999,761.27 549.483,762.582 547.196,762.897C517.726,766.96 496.283,765.808 484.111,764.703C480.977,764.418 475.092,763.485 474.311,763.362C453.271,760.026 438.955,754.676 438.426,754.483C420.149,747.822 406.557,739.954 397.848,734.339C397.82,734.321 392.087,730.493 384.961,724.711C375.225,716.812 367.423,709 361.439,702.393C359.168,699.886 350.626,689.265 345.913,681.833C345.071,680.506 340.372,673.096 336.068,664.829C334.566,661.944 332.061,656.31 331.729,655.562C328.548,648.409 326.335,642.834 323.345,633.654C321.048,626.603 319.745,622.034 317.806,613.526C314.218,597.789 312.504,584.722 311.751,578.678C311.742,578.602 311.029,571.916 310.494,562.948C310.486,562.812 309.273,543.632 309.931,526.855C310.659,508.289 312.357,492.93 313.385,484.448C313.387,484.435 314.782,473.803 317.43,459.381C322.424,432.179 328.366,410.252 331.577,398.896C331.657,398.613 335.924,383.862 342.554,365.21C348.929,347.274 354.302,334.657 355.591,331.617C356.152,330.296 356.021,330.218 356.915,329.095C357.183,328.757 358.736,326.804 361.59,326.42C362.032,326.36 364.539,326.022 366.967,327.883C367.309,328.145 369.316,329.684 369.642,332.558C369.8,333.957 365.458,360.31 364.664,402.127C364.516,409.949 363.1,443.5 367.469,484.537C367.859,488.199 369.109,504.745 372.993,526.245C373.558,529.374 375.954,545.511 381.41,565.1C382.316,568.351 385.669,582.739 392.543,599.917C393.351,601.937 395.3,607.462 398.772,615.096C399.987,617.768 401.754,622.149 405.549,629.398C406,630.26 408.3,635.327 412.328,642.216C413.252,643.797 415.725,648.704 420.515,655.833C421.588,657.429 427.931,668.67 440.134,681.04C442.199,683.134 450.176,692.61 465.819,703.159C467.638,704.387 477.793,712.053 495.039,719.767C500.012,721.991 518.246,731.275 550.916,738.039C557.473,739.396 558.935,740.041 574.815,742.599C576.757,742.912 576.795,742.814 578.578,743.656C578.972,743.842 581.397,744.988 582.655,747.276C583.235,748.329 583.284,748.334 583.341,749.536Z" style="fill:url(#_Linear2);"/>
        </g>
    </g>
    <g transform="matrix(1.09742,0,0,1.09742,-1335.1,-154.607)">
        <g transform="matrix(454.167,0,0,454.167,1307.53,1483.04)">
            <path d="M0.359,-0L0.36,-0.008L0.258,-0.008L0.304,-0.292L0.333,-0.292C0.539,-0.292 0.723,-0.358 0.723,-0.535C0.723,-0.677 0.565,-0.7 0.424,-0.7L0.08,-0.7L0.079,-0.692L0.167,-0.692L0.056,-0.008L-0.032,-0.008L-0.033,-0L0.359,-0ZM0.369,-0.692L0.398,-0.692C0.461,-0.692 0.51,-0.67 0.51,-0.571C0.51,-0.402 0.444,-0.3 0.335,-0.3L0.306,-0.3L0.369,-0.692Z" style="fill:rgb(84,202,93);fill-rule:nonzero;"/>
        </g>
        <g transform="matrix(323.847,0,0,323.847,1549.6,1483.04)">
            <path d="M0.353,-0.113C0.272,-0.115 0.218,-0.171 0.218,-0.282C0.218,-0.293 0.219,-0.303 0.22,-0.314C0.456,-0.276 0.554,-0.347 0.554,-0.42C0.554,-0.513 0.44,-0.533 0.358,-0.534C0.167,-0.534 0.025,-0.382 0.025,-0.208C0.025,-0.075 0.111,0.008 0.236,0.008C0.353,0.008 0.461,-0.064 0.529,-0.187L0.522,-0.19C0.477,-0.128 0.406,-0.112 0.353,-0.113L0.353,-0.113ZM0.358,-0.526C0.392,-0.526 0.406,-0.5 0.406,-0.464C0.406,-0.403 0.351,-0.318 0.221,-0.324C0.232,-0.422 0.285,-0.526 0.358,-0.526L0.358,-0.526Z" style="fill:rgb(84,202,93);fill-rule:nonzero;"/>
        </g>
        <g transform="matrix(323.847,0,0,323.847,1737.1,1483.04)">
            <path d="M0.205,0.008C0.336,0.008 0.499,-0.052 0.499,-0.188C0.499,-0.37 0.192,-0.333 0.192,-0.449C0.192,-0.504 0.259,-0.526 0.314,-0.526C0.364,-0.526 0.399,-0.508 0.399,-0.476C0.399,-0.452 0.38,-0.431 0.358,-0.425C0.358,-0.384 0.393,-0.363 0.428,-0.363C0.469,-0.363 0.503,-0.393 0.503,-0.437C0.503,-0.514 0.398,-0.534 0.316,-0.534C0.189,-0.534 0.038,-0.473 0.038,-0.349C0.038,-0.168 0.35,-0.19 0.35,-0.077C0.35,-0.014 0.255,-0 0.208,-0C0.134,-0 0.11,-0.028 0.11,-0.056C0.11,-0.084 0.128,-0.111 0.153,-0.118C0.155,-0.163 0.116,-0.185 0.081,-0.185C0.031,-0.185 -0.005,-0.144 -0.005,-0.102C-0.005,-0.021 0.108,0.008 0.205,0.008Z" style="fill:rgb(84,202,93);fill-rule:nonzero;"/>
        </g>
        <g transform="matrix(323.847,0,0,323.847,1909.71,1483.04)">
            <path d="M0.406,-0.518L0.408,-0.526L0.302,-0.526L0.333,-0.725L0.325,-0.725C0.314,-0.666 0.301,-0.603 0.266,-0.565C0.223,-0.534 0.162,-0.526 0.092,-0.526L0.048,-0.526L0.046,-0.518L0.121,-0.518L0.06,-0.136C0.043,-0.027 0.098,0.008 0.165,0.008C0.243,0.008 0.312,-0.036 0.328,-0.12L0.32,-0.12C0.309,-0.074 0.287,-0.046 0.261,-0.046C0.225,-0.046 0.234,-0.096 0.24,-0.136L0.3,-0.518L0.406,-0.518Z" style="fill:rgb(84,202,93);fill-rule:nonzero;"/>
        </g>
        <g transform="matrix(323.847,0,0,323.847,2025,1483.04)">
            <path d="M0.354,-0.534C0.174,-0.534 0.027,-0.39 0.027,-0.219C0.027,-0.087 0.126,0.008 0.269,0.008C0.447,0.008 0.597,-0.141 0.597,-0.307C0.597,-0.439 0.498,-0.534 0.354,-0.534ZM0.27,-0C0.221,-0 0.21,-0.055 0.21,-0.114C0.21,-0.218 0.243,-0.526 0.353,-0.526C0.403,-0.526 0.414,-0.469 0.414,-0.41C0.414,-0.292 0.381,-0 0.27,-0Z" style="fill:rgb(84,202,93);fill-rule:nonzero;"/>
        </g>
    </g>
    <defs>
        <linearGradient id="_Linear1" x1="0" y1="0" x2="1" y2="0" gradientUnits="userSpaceOnUse" gradientTransform="matrix(-206.771,-943.663,943.663,-206.771,686.309,1112.39)"><stop offset="0" style="stop-color:rgb(0,189,191);stop-opacity:1"/><stop offset="1" style="stop-color:rgb(138,210,30);stop-opacity:1"/></linearGradient>
        <linearGradient id="_Linear2" x1="0" y1="0" x2="1" y2="0" gradientUnits="userSpaceOnUse" gradientTransform="matrix(-206.771,-943.663,943.663,-206.771,686.309,1112.39)"><stop offset="0" style="stop-color:rgb(0,189,191);stop-opacity:1"/><stop offset="1" style="stop-color:rgb(138,210,30);stop-opacity:1"/></linearGradient>
    </defs>
</svg>
